<svg version="1.0" xmlns="http://www.w3.org/2000/svg" width="1365.333" height="1365.333" viewBox="0 0 1024 1024"><path d="M134.9 63.5c-.3.2-4.3.7-8.9 1-4.5.3-9.2 1.1-10.4 1.7-1.1.6-2.2 1.1-2.3 1-.2-.1-.4-.2-.5-.1-.2 0-1.2.2-2.3.4-2.7.5-11.9 4.8-12.3 5.7-.2.5-1 .8-1.8.8s-1.4.4-1.4 1c0 .5-.5 1-1 1-2.1 0-14.9 12.3-17.7 17-.9 1.6-2 3-2.4 3-.4 0-1 1.3-1.4 3-.4 1.6-1.1 3-1.6 3s-.9.9-.9 1.9c0 1.1-.4 2.2-.9 2.5-.5.3-1.4 2.7-2.1 5.3-.7 2.7-1.6 5.5-1.9 6.3-.3.8-.6 177.4-.8 392.5-.1 347.2 0 391.6 1.4 396.5.8 3 1.6 5.9 1.7 6.5.1.5 1 2.7 1.9 4.9.9 2.1 1.7 4.2 1.7 4.7s.5.9 1 .9c.6 0 1 .6 1 1.4 0 3.3 12.4 17 20.4 22.5 4.1 2.9 16.6 9.3 16.6 8.6 0-.2 1.8.2 4.1 1s4.5 1.2 5 .9c.5-.3.9-.1.9.3 0 .5 1.3.8 2.9.7 1.5-.1 3.4.2 4.1.6.7.4 2.5.4 4 0s3.3-.4 4 0c.7.4 2.5.4 4 0s3.3-.4 4 0c.6.4 2.7.4 4.6 0 1.9-.4 3.6-.4 3.9 0 .3.4 2.1.4 4 0s3.7-.4 4 0c.3.4 2.1.4 4 0s3.7-.4 4 0c.3.4 2.1.4 4 0s3.7-.4 4 0c.3.4 2.1.4 4 0s3.7-.4 4 0c.3.4 2 .5 3.7.1 1.8-.4 3.5-.8 3.8-.9.3-.1 2.1.3 4.1.7 2.1.5 4.3.5 4.9.1.7-.4 2.6-.4 4.1 0 1.6.5 3.1.5 3.4.1.2-.5 2.3-.5 4.5-.1s4 .4 4 0 2-.4 4.5 0 4.5.4 4.5.1c0-.7 8.9-.5 9.6.2.3.3 1.8.2 3.2-.2 1.5-.4 3.8-.5 5.2-.1 1.4.4 3.4.4 4.5 0s2.9-.4 4.1 0c1.1.5 2.6.5 3.3.1.7-.5 3-.5 5.2-.1 2.1.4 3.9.4 3.9 0s2-.4 4.5 0 4.5.4 4.5.1c0-.7 8.9-.5 9.6.2.3.3 1.8.2 3.2-.2 1.5-.4 3.8-.5 5.2-.1 1.4.4 3.4.4 4.5 0s2.8-.4 3.9-.1c1 .4 4 .4 6.7.1 2.7-.4 4.9-.4 4.9-.1 0 .7 12.8.4 14.6-.3.8-.3 1.6-.1 1.9.3.3.5 2.1.5 4 .1s3.7-.4 4 0c.3.4 2.1.4 4 0s3.7-.4 4 0c.3.4 2.1.4 4 0s3.7-.4 4 0c.3.4 2.1.4 4 0s3.7-.4 4 0c.3.4 2.1.4 4 0s3.7-.4 4 0c.3.4 2.1.4 4 0s3.7-.4 4 0c.3.4 2 .5 3.7.1 3.3-.7 9.2-.5 11.6.4.6.2 1.2.1 1.2-.3 0-.7 12.6-.6 14.7.2.7.3 1.5.2 1.7-.3.3-.4 2.2-.5 4.3-.2 2.1.4 5.7.4 8 .1 2.3-.4 4.7-.4 5.4 0 .6.4 2.5.4 4.3 0 1.8-.4 4.1-.4 5.2.1 1.2.4 2.7.4 3.4-.1.7-.4 2.4-.4 3.9 0 1.4.4 3.5.4 4.6 0 1.1-.4 3.4-.4 5.2.1 1.8.4 3.3.4 3.3 0s1.9-.5 4.3-.1c2.3.3 6.3.3 9-.1 2.6-.3 4.9-.3 5.2-.1.7.7 16.4.4 17.5-.3.6-.4 1-.1 1 .5s.4.9.8.6c1-.6 4-.7 15.5-.6 4.2.1 8.1-.1 8.6-.5.5-.3 1.2-.1 1.5.4.3.5 2.1.5 4.1.1 1.9-.4 3.7-.4 4 0 .3.4 2.1.4 4 0s3.7-.4 4 0c.3.4 2.1.4 4 0s3.7-.4 4 0c.3.4 2.1.4 4 0s3.7-.4 4 0c.3.4 2.1.4 4 0s3.7-.4 4 0c.3.4 2.1.4 4 0s3.7-.4 4 0c.3.4 2 .5 3.7.1 1.8-.4 3.5-.8 3.8-.9.3-.1 2.1.3 4.1.7 2.1.5 4.3.5 4.9.1.7-.4 2.6-.4 4.1 0 1.6.5 3.1.5 3.4.1.2-.5 2.3-.5 4.5-.1s4 .4 4 0 2-.4 4.5 0 4.5.4 4.5.1c0-.7 8.9-.5 9.6.2.3.3 1.8.2 3.2-.2 1.5-.4 3.8-.5 5.2-.1 1.4.4 3.4.4 4.5 0s2.9-.4 4.1 0c1.1.5 2.6.5 3.3.1.7-.5 3-.5 5.2-.1 2.1.4 3.9.4 3.9 0s2-.4 4.5 0 4.5.4 4.5.1c0-.7 8.9-.5 9.6.2.3.3 1.8.2 3.2-.2 1.5-.4 3.8-.5 5.2-.1 1.4.4 3.4.4 4.5 0s2.8-.4 3.9-.1c1 .4 4 .4 6.7.1 2.7-.4 4.9-.4 4.9-.1 0 .7 12.8.4 14.6-.3.8-.3 1.6-.1 1.9.3.3.5 2.1.5 4 .1s3.7-.4 4 0c.3.4 2.1.4 4 0s3.7-.4 4 0c.3.4 2.1.4 4 0s3.7-.4 4 0c.3.4 2.1.4 4 0s3.7-.4 4 0c.3.4 2.1.4 4 0s3.7-.4 4 0c.3.4 2.1.4 4 0s3.7-.4 4 0c.3.4 2 .5 3.7.1 3.3-.7 9.2-.5 11.6.4.6.2 1.2.1 1.2-.3 0-.7 12.6-.6 14.7.2.7.3 1.5.2 1.7-.3.3-.4 2.2-.5 4.3-.2 2.1.4 5.7.4 8 .1 2.3-.4 4.7-.4 5.4 0 .6.4 2.5.4 4.3 0 1.8-.4 4.1-.4 5.2.1 1.2.4 2.7.4 3.4-.1.7-.4 2.4-.4 3.9 0 1.4.4 3.5.4 4.6 0 1.1-.4 3.4-.4 5.2.1 1.8.4 3.3.4 3.3 0s1.9-.5 4.3-.1c2.3.3 6.3.3 9-.1 2.6-.3 4.9-.3 5.2-.1.7.7 16.4.4 17.5-.3.6-.4 1-.1 1 .5s.4.9.8.6c.9-.5 1.9-.6 13.4-.7 3.2 0 6.5-.1 7.5-.3 1-.2 4.1-.7 6.8-1.1 2.8-.4 5.5-1 6-1.3.6-.4 1.8-.8 2.7-.9 2.8-.4 15.6-7.3 18.3-9.9 1.4-1.3 2.8-2.4 3-2.4 1.8 0 12.1-12.4 15.8-19.1 2.5-4.5 6.5-15 7.5-19.9 1-4.7 1-778.6 0-784.2-.5-2.9-1.1-6.2-1.3-7.3-.5-3.3-6.1-15-9.6-20.2-6.7-9.7-19.5-20.2-29-23.6-1.9-.7-3.6-1.5-3.9-1.9-.3-.4-2.4-1-4.5-1.4-2.2-.3-4.3-.8-4.7-1-.7-.4-15.9-1.7-18.3-1.6-5.8.4-13.6.2-14.4-.2-.5-.4-1.2-.2-1.5.2-.3.5-2.2.6-4.3.3-2.1-.4-5.7-.4-8-.1-2.3.4-4.7.4-5.4 0-.6-.4-2.5-.4-4.3 0-1.8.4-4.1.4-5.2-.1-1.2-.4-2.7-.4-3.4.1-.7.4-2.4.4-3.9 0-1.4-.4-3.5-.4-4.6 0-1.1.4-3.4.4-5.2-.1-1.8-.4-3.3-.4-3.3 0s-1.9.5-4.2.1c-2.4-.3-6.4-.3-9.1.1-2.6.3-4.9.3-5.2.1-.7-.7-16.4-.4-17.5.3-.6.4-1 .1-1-.5s-.4-.9-.8-.6c-1 .6-4 .7-15.5.6-4.2-.1-8.1.1-8.6.5-.5.3-1.2.1-1.5-.4-.3-.5-2.1-.5-4.1-.1-1.9.4-3.7.4-4 0-.3-.4-2.1-.4-4 0s-3.7.4-4 0c-.3-.4-2.1-.4-4 0s-3.7.4-4 0c-.3-.4-2.1-.4-4 0s-3.7.4-4 0c-.3-.4-2.1-.4-4 0s-3.7.4-4 0c-.3-.4-2.1-.4-4 0s-3.7.4-4 0c-.3-.4-2.2-.4-4.2.1-2.1.4-3.8.8-3.8.8s-1.6-.4-3.6-.8c-2.1-.5-4.3-.5-4.9-.1-.7.4-2.6.4-4.1 0-1.6-.5-3.1-.5-3.4-.1-.2.5-2.3.5-4.5.1s-4-.4-4 0-2 .4-4.5 0-4.5-.4-4.5-.1c0 .7-8.9.5-9.6-.2-.3-.3-1.8-.2-3.2.2-1.5.4-3.8.5-5.2.1-1.4-.4-3.4-.4-4.5 0s-2.9.4-4.1 0c-1.1-.5-2.6-.5-3.3-.1-.7.5-3 .5-5.2.1-2.1-.4-3.9-.4-3.9 0s-2 .4-4.5 0-4.5-.4-4.5-.1c0 .7-8.9.5-9.6-.2-.3-.3-1.8-.2-3.2.2-1.5.4-3.8.5-5.2.1-1.4-.4-3.4-.4-4.5 0s-2.8.4-3.9.1c-1-.4-4-.4-6.7-.1-2.7.4-4.9.4-4.9.1 0-.7-12.8-.4-14.6.3-.8.3-1.6.1-1.9-.3-.3-.5-2.1-.5-4-.1s-3.7.4-4 0c-.3-.4-2.1-.4-4 0s-3.7.4-4 0c-.3-.4-2.1-.4-4 0s-3.7.4-4 0c-.3-.4-2.1-.4-4 0s-3.7.4-4 0c-.3-.4-2.1-.4-4 0s-3.7.4-4 0c-.3-.4-2.1-.4-4 0s-3.7.4-4 0c-.3-.4-2-.5-3.7-.1-3.3.7-9.2.5-11.5-.4-.7-.2-1.3-.1-1.3.3 0 .7-12.6.6-14.7-.2-.7-.3-1.5-.2-1.7.3-.3.4-2.2.5-4.3.2-2.1-.4-5.7-.4-8-.1-2.3.4-4.7.4-5.4 0-.6-.4-2.5-.4-4.3 0-1.8.4-4.1.4-5.2-.1-1.2-.4-2.7-.4-3.4.1-.7.4-2.4.4-3.9 0-1.4-.4-3.5-.4-4.6 0-1.1.4-3.4.4-5.2-.1-1.8-.4-3.3-.4-3.3 0s-1.9.5-4.2.1c-2.4-.3-6.4-.3-9.1.1-2.6.3-4.9.3-5.2.1-.7-.7-16.4-.4-17.5.3-.6.4-1 .1-1-.5s-.4-.9-.8-.6c-1 .6-4 .7-15.5.6-4.2-.1-8.1.1-8.6.5-.5.3-1.2.1-1.5-.4-.3-.5-2.1-.5-4.1-.1-1.9.4-3.7.4-4 0-.3-.4-2.1-.4-4 0s-3.7.4-4 0c-.3-.4-2.1-.4-4 0s-3.7.4-4 0c-.3-.4-2.1-.4-4 0s-3.7.4-4 0c-.3-.4-2.1-.4-4 0s-3.7.4-4 0c-.3-.4-2.1-.4-4 0s-3.7.4-4 0c-.3-.4-2.2-.4-4.2.1-2.1.4-3.8.8-3.8.8s-1.6-.4-3.6-.8c-2.1-.5-4.3-.5-4.9-.1-.7.4-2.6.4-4.1 0-1.6-.5-3.1-.5-3.4-.1-.2.5-2.3.5-4.5.1s-4-.4-4 0-2 .4-4.5 0-4.5-.4-4.5-.1c0 .7-8.9.5-9.6-.2-.3-.3-1.8-.2-3.2.2-1.5.4-3.8.5-5.2.1-1.4-.4-3.4-.4-4.5 0s-2.9.4-4.1 0c-1.1-.5-2.6-.5-3.3-.1-.7.5-3 .5-5.2.1-2.1-.4-3.9-.4-3.9 0s-2 .4-4.5 0-4.5-.4-4.5-.1c0 .7-8.9.5-9.6-.2-.3-.3-1.8-.2-3.2.2-1.5.4-3.8.5-5.2.1-1.4-.4-3.4-.4-4.5 0s-2.8.4-3.9.1c-1-.4-4-.4-6.7-.1-2.7.4-4.9.4-4.9.1 0-.7-12.8-.4-14.6.3-.8.3-1.6.1-1.9-.3-.3-.5-2.1-.5-4-.1s-3.7.4-4 0c-.3-.4-2.1-.4-4 0s-3.7.4-4 0c-.3-.4-2.1-.4-4 0s-3.7.4-4 0c-.3-.4-2.1-.4-4 0s-3.7.4-4 0c-.3-.4-2.1-.4-4 0s-3.7.4-4 0c-.3-.4-2-.4-3.9 0s-3.8.4-4.3-.1-1.2-.7-1.4-.4zM533 241.4c4.7.3 8.5.6 8.5.7 0 .1 1.4.3 3 .4 1.7.2 4.8.6 7 .9 3.8.6 5.2.8 11.5 2.1 1.4.2 3.6.6 5 .9 8.4 1.4 31.6 8.2 33.8 9.9.6.5 1.2.7 1.2.3 0-.6 6.3 1.7 13.7 5 2.1 1 4 1.8 4.3 1.9.3 0 3 1.3 6 2.7 3 1.4 6 2.7 6.5 2.9.6.1 4.7 2.4 9.3 5.1 4.6 2.6 8.8 4.8 9.3 4.8s.9.4.9 1c0 .5.4 1 1 1 .9 0 15.2 9.3 17.6 11.5 1.7 1.5 4.6 3.7 8.5 6.5 12.4 8.9 33 29.5 45.4 45.4 1.7 2.1 3.6 4.5 4.3 5.2.6.7 1.2 1.7 1.2 2.3 0 .6.5 1.1 1 1.1.6 0 1 .7 1 1.5s.4 1.5.8 1.5c.5 0 1.8 1.8 3.1 4 1.2 2.2 2.7 4 3.3 4 .6 0 .9.3.5.6-.3.4 1 2.9 2.9 5.8 1.8 2.8 3.4 5.6 3.4 6.3 0 .6.4 1.3.9 1.5.9.3 13.8 26.5 15.9 32.3.6 1.6 1.7 4.3 2.3 6 .7 1.6 1.3 3.2 1.4 3.5.1.3.6 2 1 3.7.4 1.8 1 3.3 1.4 3.3.4 0 .7.9.8 1.9.1 1.1.9 4 1.7 6.6.9 2.5 2.1 6.7 2.7 9.3.6 2.6 1.2 5.1 1.3 5.7 1.6 7 2.9 13.5 3.1 15.5.2 1.4.4 2.5.5 2.5.3 0 .9 5.1 1.2 9.2.1 1.8.4 3.3.7 3.3 1.1 0 1.7 44 .7 54-1.2 12.2-1.4 13.9-3.1 24.5-.8 5-5.3 24.1-6.4 27.5-.5 1.4-1.4 4.5-2.2 7-.7 2.5-1.5 4.9-1.8 5.5-.3.5-.6 1.4-.8 2-.3 1.7-4.3 12.5-5.2 14.3-1.4 2.6-4.1 8.9-4.1 9.6 0 .3-1.4 2.9-3.1 5.8-1.7 2.9-3.1 5.5-3.1 5.8 0 .5-3.5 7.2-5.4 10.5-.7 1.1-2 3.4-2.9 5.1-.9 1.7-2.5 4.1-3.6 5.3-1.1 1.1-1.6 2.1-1.2 2.1.4 0 .3.4-.2.8-.6.4-2.3 2.7-4 5.2-2.4 3.7-10 13.9-13.7 18.5-7.5 9.2-22.8 24.8-31.8 32.5-3.6 3-6.7 5.7-7 6.1-4.1 4.7-43.2 29.9-46.5 29.9-.8 0-1.5.4-1.5.8 0 .7-4 2.8-9 4.7-.3.1-2.7 1.2-5.5 2.4-10 4.6-32.2 12.3-39.2 13.7-1.2.2-3.4.9-4.8 1.4-1.4.5-2.5.8-2.5.5 0-.2-1.5.1-3.2.6-5.7 1.6-28 5-29.4 4.5-.8-.3-1.4-.2-1.4.2s-2.5.8-5.6.7c-3.1 0-5.7.2-5.9.5-.5.8-33 .4-40.5-.5-3.6-.4-8.2-.8-10.2-.9-2.1 0-3.8-.3-3.8-.6s-1.5-.6-3.2-.7c-7.2-.4-31.8-6.2-45.6-10.8-.7-.3-1.6-.5-2-.6-.4 0-1.6-.6-2.7-1.2s-2.7-1.2-3.5-1.3c-1.6-.3-6.2-2.3-21.5-9.2-5.5-2.6-10.5-5-11.2-5.5-.7-.5-2.7-1.7-4.5-2.6-7.1-3.8-8.7-4.8-19.8-12.3-6.3-4.2-12.5-8.6-13.7-9.7-1.2-1.2-2.6-2.1-3.2-2.1-.5 0-1.1-.4-1.3-.9-.1-.4-3.4-3.5-7.3-6.7-11.5-9.7-28.8-27.9-38.1-40.1-4.2-5.5-17.4-25.1-17.4-25.8 0-.4-.9-2-2-3.5-2-2.8-14-26.3-14-27.4 0-.4-.9-2.5-1.9-4.9-2.3-5.2-4.9-11.9-6.6-17.2-2.5-7.9-4.7-15.5-4.5-15.7.1-.2-.3-1.6-.9-3.1-.6-1.5-1.3-4.2-1.6-6-.3-1.8-1-4.8-1.5-6.7-.5-1.9-1.1-5.3-1.5-7.5-.3-2.2-.8-5.5-1.1-7.3-.4-1.7-.7-4.7-.9-6.5-.1-1.7-.4-3.9-.6-4.7-.4-1.3 10.6-1.5 94.1-1.5h94.5l.1 21.5c0 23.5.4 25.6 5.8 30l3 2.5H511c79 0 76.1.2 80.2-6.4l2.3-3.6.1-71c0-78.3.3-75-6.3-79.5l-3.5-2.4-71.2.1c-39.1.1-72 .3-73 .6-1.1.2-2.2.9-2.4 1.5-.2.7-.9 1.2-1.6 1.2-.6 0-2 1.4-3.1 3.2-1.7 2.9-1.9 5.5-1.9 25.3l-.1 22-94.3.3-94.2.2.4-5.2c.3-2.9.5-5.3.6-5.3.1 0 .3-1.1.5-2.5.5-4 1.6-10 3.2-17.5 2-9.3 2.1-10 2.3-10 .1 0 .3-.8.5-1.8.5-2.4 6.5-21.6 7.8-24.7.5-1.4 1.1-3.1 1.3-3.8.1-.6 1.1-3.1 2.2-5.5 3.9-8.5 5.2-11.5 5.2-12.2 0-.4.9-2 2.1-3.6 1.1-1.6 1.8-2.9 1.5-2.9-.3 0 1.4-3.3 3.6-7.3 2.3-3.9 4.8-8.4 5.5-9.8.7-1.5 2-3.2 2.8-3.9.8-.7 1.5-1.8 1.5-2.6 0-.7.6-1.9 1.3-2.6.6-.7 2.9-3.9 5-7s4.6-6.6 5.5-7.6c.9-1.1 2.4-3 3.2-4.2.8-1.2 2.4-3.2 3.5-4.5 1.1-1.2 3.3-3.8 4.8-5.6 7.4-8.8 24.5-25.5 33.2-32.4 2.1-1.7 4.6-3.8 5.6-4.8 1.1-.9 2.1-1.7 2.4-1.7.3 0 3.1-2 6.2-4.4 6.8-5.1 17.8-12.1 24.6-15.6 2.6-1.4 4.7-2.8 4.7-3.2 0-.5.4-.8.9-.8s5.1-2 10.2-4.4c14.6-6.7 17.9-8.2 24.9-10.5 3.6-1.3 7.2-2.5 8-2.8 1.8-.7 1.3-.6 12.5-3.8 5-1.4 10.4-2.8 12-3.1 1.7-.3 5-1 7.5-1.5 6.2-1.5 6.7-1.6 13.5-2.4 3.3-.4 7.1-.9 8.5-1.1 1.4-.2 7-.7 12.5-1 5.5-.3 10.1-.7 10.2-.7.3-.4 20.8.2 29.3.7z"/></svg>